<svg width="108" height="80" viewBox="0 0 108 80" fill="none" xmlns="http://www.w3.org/2000/svg">
<g clip-path="url(#clip0_4523_14953)">
<path fill-rule="evenodd" clip-rule="evenodd" d="M67.2813 0C45.1899 0 27.2812 17.9086 27.2812 40C27.2812 62.0914 45.1899 80 67.2813 80C89.3727 80 107.281 62.0914 107.281 40C107.281 17.9086 89.3727 0 67.2813 0Z" fill="#8FBFFA"/>
<path fill-rule="evenodd" clip-rule="evenodd" d="M53.463 34.1422C50.2393 34.131 47.6295 31.5142 47.6295 28.2879C47.6295 25.0547 50.2505 22.4336 53.4838 22.4336L53.508 22.4337C56.7301 22.4467 59.3381 25.0627 59.3381 28.2879C59.3381 31.5211 56.717 34.1422 53.4838 34.1422L53.463 34.1422ZM47.8192 45.5513C47.0302 45.5513 46.3906 46.1909 46.3906 46.9799C46.3906 50.137 47.9307 54.6215 51.2554 58.3153C54.6277 62.0627 59.8518 65.0164 67.1953 65.0164C74.5387 65.0164 79.7629 62.0627 83.1351 58.3153C86.4599 54.6215 87.9999 50.137 87.9999 46.9799C87.9999 46.1909 87.3604 45.5513 86.5713 45.5513H47.8192ZM81.077 34.1422C77.8501 34.1347 75.2365 31.5165 75.2365 28.2879C75.2365 25.0547 77.8576 22.4336 81.0909 22.4336L81.1047 22.4337C84.3316 22.4411 86.945 25.0593 86.945 28.2879C86.945 31.5211 84.3241 34.1422 81.0909 34.1422L81.077 34.1422Z" fill="#2859C5"/>
</g>
<g clip-path="url(#clip1_4523_14953)">
<path fill-rule="evenodd" clip-rule="evenodd" d="M31.0089 48.1343C30.2094 48.0297 29.3964 48.1288 28.6454 48.4221C27.8943 48.7155 27.2295 49.1938 26.7126 49.8126L26.6835 49.8485L16.9491 62.2988L16.9368 62.3147C16.4536 62.951 16.1382 63.6986 16.0197 64.4887C15.9013 65.2788 15.9835 66.0861 16.2588 66.8361C16.5341 67.5862 16.9937 68.2547 17.5952 68.7806C18.1934 69.3036 18.9128 69.6683 19.6878 69.842L38.1681 74.2667L38.1906 74.2717C39.0416 74.4608 39.9284 74.4087 40.7513 74.1211C41.5742 73.8339 42.3005 73.3221 42.8485 72.6442C43.3965 71.9663 43.7443 71.1489 43.8529 70.2841C43.9615 69.4194 43.8263 68.5413 43.4631 67.749C43.4537 67.7285 43.4437 67.7082 43.4335 67.6881L34.7155 50.8316C34.3748 50.113 33.8605 49.4904 33.2189 49.0201C32.5684 48.5435 31.8084 48.2388 31.0089 48.1343Z" fill="#B9DFFE"/>
<path fill-rule="evenodd" clip-rule="evenodd" d="M19.5644 37.765C20.7214 38.0138 21.4578 39.1534 21.209 40.3104C20.6805 42.7686 21.0993 45.3083 22.3953 47.479C23.0019 48.4952 22.67 49.8107 21.6538 50.4173C20.6377 51.024 19.3221 50.6921 18.7155 49.6759C16.8658 46.5777 16.2618 42.9315 17.019 39.4096C17.2678 38.2525 18.4074 37.5163 19.5644 37.765ZM13.8238 46.1871C13.8431 45.0038 12.8995 44.0288 11.7162 44.0095C10.5329 43.9902 9.55797 44.9338 9.53864 46.1171C9.50619 48.1032 10.2009 50.0328 11.4919 51.5424C12.2611 52.4418 13.6138 52.5474 14.5132 51.7782C15.4126 51.0091 15.5182 49.6564 14.749 48.757C14.1375 48.0419 13.8084 47.1279 13.8238 46.1871ZM9.45487 61.5756C10.201 61.0306 11.1224 60.7809 12.0415 60.8745C13.2189 60.9944 14.2706 60.1371 14.3905 58.9598C14.5103 57.7824 13.6531 56.7308 12.4757 56.6109C10.504 56.4101 8.52766 56.9457 6.92715 58.1146C5.97145 58.8127 5.76254 60.1533 6.46055 61.109C7.15854 62.0647 8.49914 62.2736 9.45487 61.5756ZM4.22989 49.1367C2.66362 49.3284 1.54934 50.7535 1.74108 52.3198C1.93281 53.8861 3.35795 55.0003 4.92423 54.8086C6.49048 54.6169 7.60476 53.1917 7.41303 51.6255C7.22129 50.0592 5.79614 48.9449 4.22989 49.1367Z" fill="#2BA8FF"/>
</g>
<defs>
<clipPath id="clip0_4523_14953">
<rect width="80" height="80" fill="white" transform="translate(27.2812)"/>
</clipPath>
<clipPath id="clip1_4523_14953">
<rect width="40" height="40" fill="white" transform="translate(0 39.5781) rotate(-6.97917)"/>
</clipPath>
</defs>
</svg>
