<svg width="24" height="24" viewBox="0 0 36 36" fill="none" xmlns="http://www.w3.org/2000/svg">
<path d="M31.5 8.96094C26.505 8.46594 21.48 8.21094 16.47 8.21094C13.5 8.21094 10.53 8.36094 7.56 8.66094L4.5 8.96094" stroke="#B9B9B9" stroke-width="2.25" stroke-linecap="round" stroke-linejoin="round"/>
<path d="M12.75 7.455L13.08 5.49C13.32 4.065 13.5 3 16.035 3H19.965C22.5 3 22.695 4.125 22.92 5.505L23.25 7.455" stroke="#B9B9B9" stroke-width="2.25" stroke-linecap="round" stroke-linejoin="round"/>
<path d="M28.2688 13.7109L27.2938 28.8159C27.1288 31.1709 26.9937 33.0009 22.8087 33.0009H13.1787C8.99375 33.0009 8.85875 31.1709 8.69375 28.8159L7.71875 13.7109" stroke="#B9B9B9" stroke-width="2.25" stroke-linecap="round" stroke-linejoin="round"/>
<path d="M13.5 13.5L13.5 27" stroke="#B9B9B9" stroke-width="2.25" stroke-linecap="round" stroke-linejoin="round"/>
<path d="M18 13.5L18 27" stroke="#B9B9B9" stroke-width="2.25" stroke-linecap="round" stroke-linejoin="round"/>
<path d="M22.5 13.5L22.5 27" stroke="#B9B9B9" stroke-width="2.25" stroke-linecap="round" stroke-linejoin="round"/>
</svg>
