<svg width="80" height="80" viewBox="0 0 80 80" fill="none" xmlns="http://www.w3.org/2000/svg">
<g clip-path="url(#clip0_4458_8734)">
<path fill-rule="evenodd" clip-rule="evenodd" d="M44.2891 20.0006C44.2891 17.6336 42.3703 15.7148 40.0033 15.7148C37.6364 15.7148 35.7176 17.6336 35.7176 20.0006V42.8577C35.7176 45.2246 37.6364 47.1434 40.0033 47.1434C42.3703 47.1434 44.2891 45.2246 44.2891 42.8577V20.0006ZM40.0033 62.8577C43.1592 62.8577 45.7176 60.2994 45.7176 57.1434C45.7176 53.9875 43.1592 51.4291 40.0033 51.4291C36.8475 51.4291 34.2891 53.9875 34.2891 57.1434C34.2891 60.2994 36.8475 62.8577 40.0033 62.8577Z" fill="#2859C5"/>
<path fill-rule="evenodd" clip-rule="evenodd" d="M4.32727 17.5511L7.39269 19.3904C14.2276 8.599 26.273 1.42969 40.0002 1.42969C55.5735 1.42969 68.9825 10.6589 75.0722 23.9277C76.0596 26.0789 75.1162 28.6231 72.9647 29.6105C70.8139 30.5978 68.2693 29.6543 67.2819 27.5031C62.5379 17.1659 52.1011 10.0011 40.0002 10.0011C29.4031 10.0011 20.0825 15.4972 14.7445 23.8015L18.613 26.1225C19.6039 26.7171 20.1391 27.85 19.969 28.9931C19.7989 30.1361 18.957 31.0641 17.8359 31.3444L6.40737 34.2015C4.87654 34.5843 3.3253 33.6535 2.94259 32.1227L0.0854454 20.6941C-0.194831 19.5729 0.227828 18.3934 1.15633 17.7055C2.08484 17.0175 3.33635 16.9566 4.32727 17.5511ZM65.2562 56.2009L61.387 53.8797C60.3962 53.2851 59.8613 52.1522 60.031 51.0092C60.2013 49.8661 61.043 48.9381 62.1642 48.6579L73.5928 45.8007C75.1236 45.418 76.675 46.3487 77.0579 47.8796L79.915 59.308C80.195 60.4291 79.7722 61.6085 78.8442 62.2965C77.9156 62.9845 76.6642 63.0457 75.6727 62.4508L72.6076 60.612C65.7727 71.4034 53.7275 78.5725 40.0003 78.5725C24.427 78.5725 11.0182 69.3434 4.92832 56.0745C3.941 53.9233 4.8845 51.3791 7.03566 50.3918C9.18686 49.4044 11.7311 50.348 12.7185 52.4991C17.4629 62.8365 27.8994 70.0011 40.0003 70.0011C50.5973 70.0011 59.9179 64.5051 65.2562 56.2009Z" fill="#8FBFFA"/>
</g>
<defs>
<clipPath id="clip0_4458_8734">
<rect width="80" height="80" fill="white"/>
</clipPath>
</defs>
</svg>
