<svg width="80" height="80" viewBox="0 0 80 80" fill="none" xmlns="http://www.w3.org/2000/svg">
<g clip-path="url(#clip0_4468_15781)">
<path fill-rule="evenodd" clip-rule="evenodd" d="M72.7117 0.212603C70.9975 -0.161286 69.2135 -0.0401686 67.566 0.561265L6.34586 20.9871L6.3266 20.9936C4.76746 21.5261 3.37881 22.4654 2.30418 23.7143C1.23686 24.9547 0.517769 26.4558 0.21996 28.0644C-0.0774656 29.5369 -0.00732085 31.0601 0.424425 32.4992C0.859263 33.9487 1.64727 35.2675 2.71769 36.3371L17.4937 51.1132L17.0117 69.6982C16.9855 70.7079 17.4947 71.6571 18.3508 72.1931C19.207 72.7296 20.2828 72.7742 21.1803 72.3102L32.6892 66.3588L43.6454 77.2651C44.7538 78.3954 46.1369 79.2182 47.6594 79.6531C49.1832 80.0885 50.794 80.1205 52.3336 79.7451C53.8728 79.3839 55.294 78.6348 56.4615 77.5679C57.6323 76.4982 58.5083 75.1456 59.006 73.6405L79.43 12.425C80.0312 10.778 80.1523 8.99353 79.7786 7.27971C79.4009 5.54872 78.534 3.96254 77.2815 2.70976C76.0289 1.45697 74.4426 0.590236 72.7117 0.212603Z" fill="#8FBFFA"/>
<path d="M17.483 51.1172L17.001 69.7021C16.9747 70.7118 17.4839 71.661 18.3401 72.1975C19.1962 72.7335 20.272 72.7781 21.1695 72.3141L32.6784 66.3627L17.483 51.1172Z" fill="#2859C5"/>
<path fill-rule="evenodd" clip-rule="evenodd" d="M17.4667 51.5083L57.7239 22.2659C59.3194 21.1067 59.6736 18.8733 58.5142 17.2774C57.3554 15.6816 55.1217 15.3276 53.5258 16.4868L12.5859 46.2252L17.4769 51.1162L17.4667 51.5083Z" fill="#2859C5"/>
</g>
<defs>
<clipPath id="clip0_4468_15781">
<rect width="80" height="80" fill="white"/>
</clipPath>
</defs>
</svg>
