<svg width="80" height="80" viewBox="0 0 80 80" fill="none" xmlns="http://www.w3.org/2000/svg">
<g clip-path="url(#clip0_4523_14871)">
<path fill-rule="evenodd" clip-rule="evenodd" d="M40.004 0.265625C38.3857 0.265625 36.7939 0.67681 35.3781 1.46059C33.964 2.24342 32.7717 3.37231 31.9128 4.74151L31.9097 4.74648L21.6336 21.0081L8.63902 22.6003C6.93787 22.7934 5.32121 23.4456 3.96221 24.4872C2.59882 25.5322 1.54648 26.9294 0.918623 28.5284C0.290768 30.1273 0.111211 31.8673 0.399306 33.5607C0.6874 35.2542 1.43222 36.8369 2.55349 38.1383L2.56449 38.151L13.6073 50.8162L10.0303 68.4383L10.026 68.4594C9.68016 70.2331 9.8477 72.0691 10.509 73.7508C11.1702 75.4326 12.2977 76.8908 13.759 77.9543L13.793 77.9783C15.2651 79.0171 16.9996 79.6206 18.7985 79.7206C20.596 79.8206 22.3855 79.4131 23.9628 78.5457L40.004 69.7674L56.0418 78.544C57.6192 79.4114 59.412 79.8206 61.2098 79.7206C63.0086 79.6206 64.7429 79.0171 66.2149 77.9783L66.2492 77.9543C67.7103 76.8908 68.8378 75.4326 69.4989 73.7508C70.16 72.0691 70.328 70.2331 69.9818 68.4594L69.9778 68.4383L66.4006 50.8162L77.4435 38.151L77.4543 38.1383C78.576 36.8369 79.3206 35.2542 79.6086 33.5607C79.8966 31.8673 79.7172 30.1273 79.0892 28.5284C78.4618 26.9294 77.4092 25.5322 76.0458 24.4872C74.6869 23.4456 73.0703 22.7934 71.3692 22.6003L58.3743 21.0081L48.0983 4.74648L48.0952 4.74151C47.2363 3.37231 46.044 2.24342 44.6299 1.46059C43.214 0.67681 41.6223 0.265625 40.004 0.265625Z" fill="#8FBFFA"/>
<path d="M39.6 24.18C43.7619 24.18 46.9286 25.0486 49.1 26.7857C51.2715 28.4867 52.3572 30.7848 52.3572 33.68C52.3572 35.4171 51.8867 36.901 50.9457 38.1314C50.041 39.3257 48.9553 40.2305 47.6886 40.8457C48.4486 41.1352 49.1543 41.4971 49.8057 41.9314C50.4572 42.3657 51.0362 42.9086 51.5429 43.56C52.0495 44.2114 52.4476 44.9714 52.7372 45.84C53.0267 46.7086 53.1715 47.7219 53.1715 48.88C53.1715 50.4362 52.8276 51.8295 52.14 53.06C51.4886 54.2905 50.5657 55.34 49.3715 56.2086C48.1772 57.0771 46.7476 57.7286 45.0829 58.1629C43.4543 58.6333 41.6629 58.8686 39.7086 58.8686C35.9448 58.8686 33.1038 58.3438 31.1857 57.2943C29.2676 56.2448 28.3086 54.9057 28.3086 53.2771C28.3086 52.3 28.5438 51.4676 29.0143 50.78C29.4848 50.0562 30.0638 49.4952 30.7515 49.0971C31.4753 49.6038 32.4343 50.1467 33.6286 50.7257C34.8591 51.2686 36.4515 51.54 38.4057 51.54C40.2515 51.54 41.6086 51.2143 42.4772 50.5629C43.3819 49.9114 43.8343 49.061 43.8343 48.0114C43.8343 46.9619 43.4724 46.1657 42.7486 45.6229C42.061 45.08 40.8486 44.8086 39.1115 44.8086H34.0086C33.7553 44.4105 33.5381 43.9219 33.3572 43.3429C33.1762 42.7638 33.0857 42.0762 33.0857 41.28C33.0857 40.4476 33.1581 39.7419 33.3029 39.1629C33.4838 38.5476 33.7191 38.041 34.0086 37.6429H39.1115C41.7172 37.6429 43.02 36.6476 43.02 34.6571C43.02 33.7162 42.6038 32.9562 41.7715 32.3771C40.9391 31.7981 39.6905 31.5086 38.0257 31.5086C36.5419 31.5086 35.2391 31.6895 34.1172 32.0514C32.9953 32.3771 32.0724 32.7933 31.3486 33.3C30.7334 32.8657 30.2267 32.341 29.8286 31.7257C29.4305 31.0743 29.2315 30.3143 29.2315 29.4457C29.2315 27.6362 30.1724 26.3152 32.0543 25.4829C33.9362 24.6143 36.4515 24.18 39.6 24.18Z" fill="#2859C5"/>
</g>
<defs>
<clipPath id="clip0_4523_14871">
<rect width="80" height="80" fill="white"/>
</clipPath>
</defs>
</svg>
