<svg width="80" height="80" viewBox="0 0 80 80" fill="none" xmlns="http://www.w3.org/2000/svg">
<g clip-path="url(#clip0_4292_14446)">
<path d="M40.0145 79.9993C61.5564 79.9993 76.9432 72.3673 76.9432 55.3803C76.9432 36.9159 67.7112 27.56 49.2467 18.3279L57.2335 5.84776C57.5466 5.24561 57.7021 4.57358 57.6844 3.89493C57.6661 3.21627 57.4758 2.55332 57.1313 1.96847C56.7865 1.38363 56.2986 0.896148 55.7135 0.5519C55.1284 0.207653 54.4653 0.0179757 53.7866 0.000722655H27.6904C26.9665 -0.013037 26.2524 0.169924 25.6242 0.530099C24.9961 0.890274 24.4776 1.41416 24.1238 2.0459C23.77 2.67763 23.5943 3.39354 23.6154 4.11727C23.6365 4.84102 23.8537 5.54546 24.2437 6.15547L30.7824 18.3279C12.3181 27.6831 3.08594 37.039 3.08594 55.5034C3.08594 72.3673 18.4729 79.9993 40.0145 79.9993Z" fill="#8FBFFA"/>
<path fill-rule="evenodd" clip-rule="evenodd" d="M40.0169 24.3555C41.9894 24.3555 43.5883 25.9544 43.5883 27.9269V31.5639C46.2809 31.8622 48.6746 33.1598 50.3832 35.0688C51.3034 36.097 52.03 37.3069 52.5016 38.6415C53.159 40.5012 52.1843 42.5416 50.3246 43.1989C48.4648 43.8562 46.4244 42.8815 45.7671 41.0218C45.6116 40.582 45.3705 40.1785 45.0608 39.8326C44.4018 39.0962 43.4554 38.6412 42.398 38.6412H36.8692C35.3203 38.6412 34.0647 39.8968 34.0647 41.4456C34.0647 42.7636 34.9824 43.9037 36.2699 44.1854L44.6876 46.0267C49.6076 47.103 53.1123 51.4618 53.1123 56.4956C53.1123 62.0089 48.9468 66.5546 43.5883 67.1472V70.7837C43.5883 72.7563 41.9894 74.3552 40.0169 74.3552C38.0444 74.3552 36.4455 72.7563 36.4455 70.7837V67.1472C32.3008 66.6889 28.875 63.8677 27.5325 60.0695C26.8752 58.2095 27.8499 56.1692 29.7096 55.5119C31.5693 54.8546 33.6098 55.8292 34.2671 57.6889C34.759 59.0809 36.0867 60.0695 37.6362 60.0695H42.398C44.3687 60.0695 45.9694 58.4695 45.9694 56.4956C45.9694 54.816 44.7995 53.3629 43.1612 53.0046L34.7435 51.1632C30.1768 50.1643 26.9219 46.1203 26.9219 41.4456C26.9219 36.0939 31.1483 31.7292 36.4455 31.5072V27.9269C36.4455 25.9544 38.0444 24.3555 40.0169 24.3555Z" fill="#2859C5"/>
</g>
<defs>
<clipPath id="clip0_4292_14446">
<rect width="80" height="80" fill="white"/>
</clipPath>
</defs>
</svg>
