<svg width="80" height="80" viewBox="0 0 80 80" fill="none" xmlns="http://www.w3.org/2000/svg">
<g clip-path="url(#clip0_4073_6550)">
<path d="M32.8026 23.0925C22.2505 15.8929 12.3463 20.2071 3.81342 28.034C2.45657 29.2786 2.73994 31.4556 4.31708 32.4057L21.3493 42.6661" fill="#2859C5"/>
<path d="M56.9408 47.1875C64.1404 57.7399 59.8262 67.6439 51.9992 76.1765C50.7547 77.5336 48.5776 77.2502 47.6275 75.673L37.3672 58.641" fill="#2859C5"/>
<path d="M21.3828 42.5886L37.4417 58.6474C50.2888 50.9513 64.8932 43.4976 71.5589 36.5893C85.9817 22.1666 77.6189 2.41123 77.6189 2.41123C77.6189 2.41123 57.8634 -5.95149 43.441 8.4712C36.5327 15.1371 29.0184 29.8022 21.3828 42.5886Z" fill="#8FBFFA"/>
<path fill-rule="evenodd" clip-rule="evenodd" d="M58.6791 12.2773C53.6872 12.2773 49.6406 16.3239 49.6406 21.3156C49.6406 26.3073 53.6872 30.354 58.6791 30.354C63.6706 30.354 67.7174 26.3073 67.7174 21.3156C67.7174 16.3239 63.6706 12.2773 58.6791 12.2773Z" fill="#2859C5"/>
<path fill-rule="evenodd" clip-rule="evenodd" d="M19.4811 54.2244C18.058 53.6496 16.5337 53.3673 14.9992 53.3944C13.4647 53.4214 11.9513 53.7573 10.5495 54.382C9.15477 55.0034 7.89882 55.898 6.85574 57.0128C5.64434 58.2776 4.69537 60.2513 3.96347 62.0833C3.1836 64.0353 2.48603 66.2621 1.91329 68.341C1.33854 70.4273 0.874642 72.4198 0.569095 73.925C0.417185 74.6736 0.298598 75.3307 0.225605 75.8324C0.19034 76.0753 0.157924 76.3341 0.142708 76.569C0.135694 76.6776 0.126731 76.8593 0.138586 77.065C0.1443 77.1644 0.158839 77.3484 0.208236 77.5696C0.23905 77.7073 0.367522 78.2821 0.837356 78.8301C1.3859 79.4701 2.04433 79.6707 2.21383 79.721C2.47061 79.7976 2.68654 79.8233 2.79807 79.8341C3.03074 79.857 3.23422 79.8507 3.34679 79.8456C3.59512 79.8341 3.86416 79.8033 4.10774 79.7701C4.61517 79.701 5.2772 79.5856 6.02768 79.4364C7.53894 79.137 9.54014 78.677 11.6354 78.105C13.7237 77.5347 15.9604 76.8387 17.9205 76.0598C19.7589 75.329 21.7419 74.3798 23.0092 73.1661C24.124 72.1233 25.0186 70.8673 25.64 69.4724C26.2647 68.0707 26.6005 66.5576 26.6276 65.0227C26.6547 63.4884 26.3724 61.9638 25.7976 60.541C25.2228 59.1181 24.3673 57.825 23.282 56.74C22.1968 55.6547 20.9041 54.7992 19.4811 54.2244Z" fill="#2859C5"/>
</g>
<defs>
<clipPath id="clip0_4073_6550">
<rect width="80" height="80" fill="white"/>
</clipPath>
</defs>
</svg>
