<svg width="80" height="80" viewBox="0 0 80 80" fill="none" xmlns="http://www.w3.org/2000/svg">
<g clip-path="url(#clip0_4458_11821)">
<path d="M40 80C62.0914 80 80 62.0914 80 40C80 17.9086 62.0914 0 40 0C17.9086 0 0 17.9086 0 40C0 62.0914 17.9086 80 40 80Z" fill="#8FBFFA"/>
<path fill-rule="evenodd" clip-rule="evenodd" d="M65.6346 2.16425C65.3854 1.16563 64.6174 0.378506 63.6254 0.103739C62.6334 -0.171029 61.5706 0.109046 60.8426 0.836903L49.4141 12.2655C48.7045 12.9751 48.4191 14.0051 48.6626 14.9787L50.7243 23.2259C50.6967 23.2521 50.6694 23.2787 50.6424 23.3058L36.9729 36.9752C35.2993 38.6489 35.2993 41.3625 36.9729 43.0361C38.6466 44.7098 41.3602 44.7098 43.0338 43.0361L56.7033 29.3667C56.731 29.339 56.7582 29.311 56.785 29.2828L65.0271 31.3433C66.0009 31.5867 67.0306 31.3015 67.7403 30.5918L79.1689 19.1632C79.8969 18.4354 80.1769 17.3722 79.902 16.3802C79.6271 15.3883 78.8403 14.6207 77.8414 14.3711L68.0763 11.9297L65.6346 2.16425ZM41.8183 4.33195C41.9823 6.6932 40.2011 8.74034 37.8399 8.9044C31.8705 9.31909 26.1457 11.4386 21.3454 15.0112C16.5452 18.5838 12.8714 23.4593 10.7605 29.0583C8.6496 34.6574 8.19034 40.7447 9.43726 46.5971C10.6842 52.4495 13.5849 57.8211 17.7947 62.0731C22.0046 66.3257 27.3466 69.28 33.1862 70.5857C39.0258 71.8914 45.1174 71.4937 50.7374 69.4389C56.3574 67.3846 61.2694 63.76 64.89 58.996C68.5106 54.2317 70.6877 48.5284 71.1626 42.5635C71.35 40.2041 73.4151 38.4435 75.7746 38.6313C78.134 38.819 79.8946 40.884 79.7066 43.2435C79.102 50.8442 76.3283 58.1114 71.7146 64.1823C67.1009 70.2526 60.8414 74.8714 53.6804 77.4891C46.5191 80.1074 38.7569 80.6143 31.3159 78.9509C23.8749 77.2868 17.0678 73.5223 11.7034 68.104C6.33903 62.6851 2.64286 55.8406 1.05399 48.3833C-0.534879 40.9259 0.0503512 33.1691 2.74015 26.0346C5.42995 18.9 10.1113 12.6875 16.2279 8.13514C22.3446 3.58282 29.6394 0.882 37.2459 0.353564C39.6071 0.189523 41.6542 1.97071 41.8183 4.33195ZM37.9798 23.1883C38.8426 25.3924 37.7554 27.8786 35.5513 28.7415C33.6758 29.4757 32.0129 30.6659 30.7129 32.2043C29.413 33.7428 28.517 35.581 28.1061 37.5528C27.6951 39.5245 27.7821 41.5677 28.3592 43.4973C28.9363 45.427 29.9853 47.1824 31.4113 48.6047C32.8374 50.0271 34.5954 51.0716 36.5266 51.6437C38.4578 52.2159 40.5011 52.2976 42.4718 51.8816C44.4425 51.4655 46.2784 50.5649 47.8135 49.261C49.3486 47.957 50.5345 46.2911 51.2639 44.4137C52.121 42.2074 54.6045 41.1137 56.8107 41.9709C59.0169 42.8281 60.1106 45.3115 59.2534 47.5178C58.0083 50.7231 55.9834 53.5676 53.3625 55.7938C50.7415 58.02 47.6069 59.5577 44.2423 60.268C40.8776 60.9783 37.389 60.8389 34.0918 59.8623C30.7946 58.8851 27.793 57.1019 25.3582 54.6735C22.9235 52.245 21.1325 49.2479 20.1471 45.9533C19.1618 42.6586 19.0133 39.1703 19.7149 35.8039C20.4166 32.4374 21.9463 29.2989 24.1658 26.6722C26.3853 24.0455 29.2245 22.0135 32.4266 20.7599C34.6307 19.897 37.1169 20.9843 37.9798 23.1883Z" fill="#2859C5"/>
</g>
<defs>
<clipPath id="clip0_4458_11821">
<rect width="80" height="80" fill="white"/>
</clipPath>
</defs>
</svg>
