<svg width="16" height="16" viewBox="0 0 16 16" fill="none" xmlns="http://www.w3.org/2000/svg">
<path d="M9.15132 2.33781L10.3247 4.68448C10.4847 5.01115 10.9113 5.32448 11.2713 5.38448L13.398 5.73781C14.758 5.96448 15.078 6.95115 14.098 7.92448L12.4447 9.57781C12.1647 9.85781 12.0113 10.3978 12.098 10.7845L12.5713 12.8311C12.9447 14.4511 12.0847 15.0778 10.6513 14.2311L8.65799 13.0511C8.29799 12.8378 7.70465 12.8378 7.33799 13.0511L5.34465 14.2311C3.91799 15.0778 3.05132 14.4445 3.42465 12.8311L3.89799 10.7845C3.98465 10.3978 3.83132 9.85781 3.55132 9.57781L1.89799 7.92448C0.924653 6.95115 1.23799 5.96448 2.59799 5.73781L4.72465 5.38448C5.07799 5.32448 5.50465 5.01115 5.66465 4.68448L6.83799 2.33781C7.47799 1.06448 8.51799 1.06448 9.15132 2.33781Z" fill="#FFD651" stroke="#FFD651" stroke-linecap="round" stroke-linejoin="round"/>
</svg>
