<svg width="80" height="80" viewBox="0 0 80 80" fill="none" xmlns="http://www.w3.org/2000/svg">
<g clip-path="url(#clip0_4292_14234)">
<path fill-rule="evenodd" clip-rule="evenodd" d="M40 0C62.0914 0 80 17.9086 80 40C80 62.0914 62.0914 80 40 80C17.9086 80 0 62.0914 0 40C0 17.9086 17.9086 0 40 0Z" fill="#8FBFFA"/>
<path fill-rule="evenodd" clip-rule="evenodd" d="M26.1968 22.4399C22.9636 22.4399 20.3424 25.061 20.3424 28.2942C20.3424 31.5275 22.9635 34.1486 26.1968 34.1486L26.2107 34.1485C29.4375 34.1411 32.0511 31.5229 32.0511 28.2942C32.0511 25.061 29.43 22.4399 26.1968 22.4399ZM47.9497 28.2942C47.9497 25.061 50.5707 22.4399 53.8039 22.4399C57.0372 22.4399 59.658 25.061 59.658 28.2942C59.658 31.5229 57.0447 34.141 53.8179 34.1485L53.804 34.1486C50.5708 34.1486 47.9497 31.5275 47.9497 28.2942ZM23.9429 44.3454C23.4304 42.4407 21.4708 41.3122 19.5661 41.8247C17.6615 42.3373 16.5329 44.2969 17.0455 46.2016C19.7709 56.3297 29.015 63.7891 40.0103 63.7891C51.0056 63.7891 60.2495 56.3297 62.9752 46.2016C63.4877 44.2969 62.3592 42.3373 60.4546 41.8247C58.55 41.3122 56.5902 42.4407 56.0777 44.3454C54.1702 51.4335 47.6944 56.646 40.0103 56.646C32.3262 56.646 25.8504 51.4335 23.9429 44.3454Z" fill="#2859C5"/>
</g>
<defs>
<clipPath id="clip0_4292_14234">
<rect width="80" height="80" fill="white"/>
</clipPath>
</defs>
</svg>
