<svg width="24" height="24" viewBox="0 0 36 36" fill="none" xmlns="http://www.w3.org/2000/svg">
<path d="M16.5 3H13.5C6 3 3 6 3 13.5V22.5C3 30 6 33 13.5 33H22.5C30 33 33 30 33 22.5V19.5" stroke="#B9B9B9" stroke-width="2.25" stroke-linecap="round" stroke-linejoin="round"/>
<path d="M24.0569 4.53184L12.2369 16.3518C11.7869 16.8018 11.3369 17.6868 11.2469 18.3318L10.6019 22.8468C10.3619 24.4818 11.5169 25.6218 13.1519 25.3968L17.6669 24.7518C18.2969 24.6618 19.1819 24.2118 19.6469 23.7618L31.4669 11.9418C33.5069 9.90184 34.4669 7.53184 31.4669 4.53184C28.4669 1.53184 26.0969 2.49184 24.0569 4.53184Z" stroke="#B9B9B9" stroke-width="2.25" stroke-miterlimit="10" stroke-linecap="round" stroke-linejoin="round"/>
<path d="M22.3594 6.21875C23.3644 9.80375 26.1694 12.6088 29.7694 13.6288" stroke="#B9B9B9" stroke-width="2.25" stroke-miterlimit="10" stroke-linecap="round" stroke-linejoin="round"/>
</svg>
