<svg width="80" height="80" viewBox="0 0 80 80" fill="none" xmlns="http://www.w3.org/2000/svg">
<g clip-path="url(#clip0_4458_11781)">
<path d="M27.8866 24.3371V55.4039L24.7789 55.9888C17.8145 57.2995 14.4997 65.3395 18.5167 71.1778L22.8824 77.5229C23.9486 79.0721 25.7091 79.9978 27.5899 79.9978H65.3467C68.5027 79.9978 71.061 77.4395 71.061 74.2835V62.3366C71.061 54.2165 64.4781 47.6338 56.3581 47.6338H42.2795V24.3371C42.2795 20.3626 39.0576 17.1406 35.0831 17.1406C31.1086 17.1406 27.8866 20.3626 27.8866 24.3371Z" fill="#8FBFFA"/>
<path fill-rule="evenodd" clip-rule="evenodd" d="M34.9199 8.57143C25.8909 8.57143 18.5714 15.8909 18.5714 24.9199C18.5714 26.2053 18.719 27.4508 18.9962 28.6425C19.5324 30.9479 18.0983 33.2515 15.7929 33.7878C13.4875 34.3241 11.1839 32.8899 10.6476 30.5845C10.2234 28.7606 10 26.8637 10 24.9199C10 11.157 21.157 0 34.9199 0C48.6829 0 59.8401 11.157 59.8401 24.9199C59.8401 26.8637 59.6166 28.7606 59.1921 30.5845C58.6561 32.8899 56.3525 34.3241 54.047 33.7878C51.7417 33.2515 50.3075 30.9479 50.8438 28.6425C51.121 27.4508 51.2685 26.2053 51.2685 24.9199C51.2685 15.8909 43.949 8.57143 34.9199 8.57143Z" fill="#2859C5"/>
</g>
<defs>
<clipPath id="clip0_4458_11781">
<rect width="80" height="80" fill="white"/>
</clipPath>
</defs>
</svg>
